<svg xmlns="http://www.w3.org/2000/svg" viewBox="0 0 600 600" role="img" aria-labelledby="title desc">
  <title id="title">Reference Tracking Image</title>
  <desc id="desc">High-contrast image used by the AR demo for WebXR image tracking.</desc>
  <rect width="600" height="600" fill="#ffffff" />
  <rect x="40" y="40" width="520" height="520" rx="40" fill="#ffffff" stroke="#000000" stroke-width="28" />
  <circle cx="120" cy="120" r="38" fill="#000000" />
  <circle cx="480" cy="120" r="38" fill="#000000" />
  <circle cx="120" cy="480" r="38" fill="#000000" />
  <circle cx="480" cy="480" r="38" fill="#000000" />
  <path d="M120 200 L300 120 L480 200 L480 400 L300 480 L120 400 Z" fill="#000000" />
  <path d="M230 230 L300 190 L370 230 L370 370 L300 410 L230 370 Z" fill="#ffffff" />
  <circle cx="300" cy="300" r="44" fill="#000000" />
  <rect x="88" y="272" width="94" height="56" rx="18" fill="#000000" />
  <rect x="418" y="272" width="94" height="56" rx="18" fill="#000000" />
  <rect x="272" y="88" width="56" height="94" rx="18" fill="#000000" />
  <rect x="272" y="418" width="56" height="94" rx="18" fill="#000000" />
  <text x="300" y="548" text-anchor="middle" font-family="Arial, Helvetica, sans-serif" font-size="34" font-weight="700" fill="#000000">SCAN OBJECT LABEL</text>
</svg>
